<?xml version="1.0" encoding="UTF-8" standalone="no"?>
<!-- Created with Inkscape (http://www.inkscape.org/) -->

<svg
   xmlns:dc="http://purl.org/dc/elements/1.1/"
   xmlns:cc="http://creativecommons.org/ns#"
   xmlns:rdf="http://www.w3.org/1999/02/22-rdf-syntax-ns#"
   xmlns:svg="http://www.w3.org/2000/svg"
   xmlns="http://www.w3.org/2000/svg"
   xmlns:sodipodi="http://sodipodi.sourceforge.net/DTD/sodipodi-0.dtd"
   xmlns:inkscape="http://www.inkscape.org/namespaces/inkscape"
   id="svg3426"
   version="1.1"
   inkscape:version="0.91 r13725"
   width="114.69113"
   height="121.82636"
   viewBox="0 0 114.69113 121.82636"
   sodipodi:docname="logo-square-pmlr.svg">
  <metadata
     id="metadata3432">
    <rdf:RDF>
      <cc:Work
         rdf:about="">
        <dc:format>image/svg+xml</dc:format>
        <dc:type
           rdf:resource="http://purl.org/dc/dcmitype/StillImage" />
        <dc:title></dc:title>
      </cc:Work>
    </rdf:RDF>
  </metadata>
  <defs
     id="defs3430" />
  <sodipodi:namedview
     pagecolor="#ffffff"
     bordercolor="#666666"
     borderopacity="1"
     objecttolerance="10"
     gridtolerance="10"
     guidetolerance="10"
     inkscape:pageopacity="0"
     inkscape:pageshadow="2"
     inkscape:window-width="2196"
     inkscape:window-height="1037"
     id="namedview3428"
     showgrid="false"
     inkscape:zoom="6.5845783"
     inkscape:cx="76.463846"
     inkscape:cy="64.109914"
     inkscape:window-x="516"
     inkscape:window-y="69"
     inkscape:window-maximized="0"
     inkscape:current-layer="svg3426"
     fit-margin-top="0"
     fit-margin-left="0"
     fit-margin-right="0"
     fit-margin-bottom="0" />
  <path
     style="fill:#0c236b;fill-opacity:1;fill-rule:evenodd;stroke:none;stroke-width:1px;stroke-linecap:butt;stroke-linejoin:miter;stroke-opacity:1"
     d="M 36.570312,12.311987 C 36.148,12.296447 35.700554,12.307187 35.228515,12.349097 30.510298,12.767625 0,17.290503 0,17.290503 5.800699,69.802891 5.908203,69.157691 5.908203,69.157691 l 13.636719,-2.041016 -2.46875,-20.61914 c 3.873827,-0.649691 11.824502,-1.771508 16.427734,-3.220703 5.617007,-1.99691 9.998967,-6.3595 12.669922,-11.060547 1.677193,-4.684337 0.938758,-11.560861 0,-13.103516 -0.938758,-1.542655 -1.809583,-3.106019 -3.433594,-4.273437 -1.421009,-1.021491 -3.213736,-2.418576 -6.169922,-2.527344 z m -9.689453,10.554687 c 1.90099,0.0056 4.070407,0.348032 4.90625,0.863281 1.391287,0.85765 2.104512,2.010558 2.466797,4.083985 0.362285,2.073427 -1.033167,5.050767 -2.041016,6.335937 -1.210982,1.544198 -1.848282,1.857785 -4.40039,2.898438 -2.552108,1.040653 -11.060547,2.148437 -11.060547,2.148437 L 15.035156,24.806127 c 0,0 8.489757,-1.579378 10.09375,-1.826172 0.514294,-0.07913 1.11829,-0.115132 1.751953,-0.113281 z"
     id="path3438"
     inkscape:connector-curvature="0" />
  <path
     style="fill:#0c236b;fill-opacity:1;fill-rule:evenodd;stroke:none;stroke-width:1px;stroke-linecap:butt;stroke-linejoin:miter;stroke-opacity:1"
     d="m 43.381196,10.737157 25.02808,-3.973282 12.77701,31.142634 2.25067,-0.320651 L 88.812276,3.006683 108.56559,0 l 6.12554,50.363098 -10.74289,2.042407 -5.367584,-37.588182 -2.35895,0.216091 -6.44265,40.162683 -12.02678,2.14929 -14.393471,-36.191724 -2.258406,0.429858 2.79207,37.372091 -14.169175,2.469941 -2.79207,-23.625927 c 0,0 2.815077,-3.352892 3.542294,-6.12025 0.727217,-2.767358 0.448068,-7.328525 -0.10828,-10.095855 -0.556348,-2.76733 -1.345202,-4.554267 -2.57551,-6.33634 -1.230308,-1.782073 -4.509077,-4.187049 -4.509077,-4.187049 z"
     id="path3442"
     inkscape:connector-curvature="0"
     sodipodi:nodetypes="ccccccccccccccccczzzcc" />
  <path
     style="fill:#0c236b;fill-opacity:1;fill-rule:evenodd;stroke:none;stroke-width:1px;stroke-linecap:butt;stroke-linejoin:miter;stroke-opacity:1"
     d="m 15.25712,71.570142 13.85207,-2.256174 4.93446,41.129282 18.90255,-3.32734 -0.10828,9.34303 -31.463,5.36742 z"
     id="path3444"
     inkscape:connector-curvature="0" />
  <path
     style="fill:#0c236b;fill-opacity:1;fill-rule:evenodd;stroke:none;stroke-width:1px;stroke-linecap:butt;stroke-linejoin:miter;stroke-opacity:1"
     d="m 49.72874,64.910828 6.65147,51.438902 c 0,0 13.42669,-1.82399 13.21013,-2.25385 -0.21656,-0.42986 -4.72564,-42.525738 -4.72564,-42.525738 0,0 7.09232,-1.28725 7.73427,-1.503341 0.64194,-0.216091 5.81431,-1.123485 7.84254,-0.216091 2.02823,0.907394 3.00118,2.651545 3.5423,4.189373 0.54112,1.537828 0.44943,2.687743 -0.10828,4.293934 -0.55771,1.606191 -2.29426,3.621314 -3.5423,4.726115 -1.24804,1.104801 -2.00051,1.658781 -3.55003,2.040083 -1.54952,0.381302 -5.47586,-0.213768 -5.47586,-0.213768 l 15.1437,25.986663 -0.31711,0.32297 14.9194,-3.00668 -14.16918,-20.619248 c 0,0 4.70305,-2.860232 6.22609,-4.51002 1.52304,-1.649788 2.39887,-3.177038 3.00863,-4.939883 0.60976,-1.762845 0.69601,-4.833666 0.64194,-5.36974 -0.10828,-1.073483 0.14257,-2.921889 -0.53366,-4.723791 -0.67623,-1.801902 -3.43402,-5.372064 -3.86713,-5.585831 -0.43312,-0.213767 -3.76456,-2.163471 -5.8007,-2.576825 -2.03614,-0.413353 -6.11781,0.106884 -6.11781,0.106884 z"
     id="path3446"
     inkscape:connector-curvature="0"
     sodipodi:nodetypes="ccscszzzzzccccczzszszcc" />
</svg>
