<?xml version="1.0" encoding="UTF-8" standalone="no"?>
<!-- Created with Inkscape (http://www.inkscape.org/) -->

<svg
   xmlns:dc="http://purl.org/dc/elements/1.1/"
   xmlns:cc="http://creativecommons.org/ns#"
   xmlns:rdf="http://www.w3.org/1999/02/22-rdf-syntax-ns#"
   xmlns:svg="http://www.w3.org/2000/svg"
   xmlns="http://www.w3.org/2000/svg"
   xmlns:sodipodi="http://sodipodi.sourceforge.net/DTD/sodipodi-0.dtd"
   xmlns:inkscape="http://www.inkscape.org/namespaces/inkscape"
   id="svg3426"
   version="1.1"
   inkscape:version="0.91 r13725"
   width="250"
   height="125"
   viewBox="0 0 250 125"
   sodipodi:docname="logo-pmlr.svg">
  <metadata
     id="metadata3432">
    <rdf:RDF>
      <cc:Work
         rdf:about="">
        <dc:format>image/svg+xml</dc:format>
        <dc:type
           rdf:resource="http://purl.org/dc/dcmitype/StillImage" />
        <dc:title></dc:title>
      </cc:Work>
    </rdf:RDF>
  </metadata>
  <defs
     id="defs3430" />
  <sodipodi:namedview
     pagecolor="#ffffff"
     bordercolor="#666666"
     borderopacity="1"
     objecttolerance="10"
     gridtolerance="10"
     guidetolerance="10"
     inkscape:pageopacity="0"
     inkscape:pageshadow="2"
     inkscape:window-width="2196"
     inkscape:window-height="1037"
     id="namedview3428"
     showgrid="false"
     inkscape:zoom="9.312"
     inkscape:cx="109.42869"
     inkscape:cy="85.823047"
     inkscape:window-x="755"
     inkscape:window-y="194"
     inkscape:window-maximized="0"
     inkscape:current-layer="svg3426" />
  <path
     style="fill:#0c236b;fill-rule:evenodd;stroke:none;stroke-width:1px;stroke-linecap:butt;stroke-linejoin:miter;stroke-opacity:1;fill-opacity:1"
     d="M 69.535156 28.527344 C 69.112844 28.511805 68.665398 28.522581 68.193359 28.564453 C 63.475142 28.982981 32.964844 33.505859 32.964844 33.505859 C 38.765543 86.018247 38.873047 85.373047 38.873047 85.373047 L 52.509766 83.332031 L 50.041016 62.712891 C 53.914843 62.0632 61.865518 60.941383 66.46875 59.492188 C 72.085757 57.495278 76.467717 53.132688 79.138672 48.431641 C 80.815865 43.747304 80.07743 36.87078 79.138672 35.328125 C 78.199914 33.78547 77.329089 32.222106 75.705078 31.054688 C 74.284069 30.033197 72.491342 28.636112 69.535156 28.527344 z M 59.845703 39.082031 C 61.746693 39.087586 63.91611 39.430063 64.751953 39.945312 C 66.14324 40.802962 66.856465 41.95587 67.21875 44.029297 C 67.581035 46.102724 66.185583 49.080064 65.177734 50.365234 C 63.966752 51.909432 63.329452 52.223019 60.777344 53.263672 C 58.225236 54.304325 49.716797 55.412109 49.716797 55.412109 L 48 41.021484 C 48 41.021484 56.489757 39.442106 58.09375 39.195312 C 58.608044 39.116182 59.21204 39.08018 59.845703 39.082031 z "
     id="path3438" />
  <path
     style="fill:#0c236b;fill-rule:evenodd;stroke:none;stroke-width:1px;stroke-linecap:butt;stroke-linejoin:miter;stroke-opacity:1;fill-opacity:1"
     d="m 76.34604,26.952514 25.02808,-3.973282 12.77701,31.142634 2.25067,-0.320651 5.37532,-34.579175 19.75331,-3.006683 6.12554,50.363098 -10.74289,2.042407 -5.36758,-37.588182 -2.35895,0.216091 -6.44265,40.162683 -12.02678,2.14929 -14.393471,-36.191724 -2.258406,0.429858 2.79207,37.372091 -14.169175,2.469941 -2.79207,-23.625927 c 0,0 2.815077,-3.352892 3.542294,-6.12025 0.727217,-2.767358 0.448068,-7.328525 -0.10828,-10.095855 -0.556348,-2.76733 -1.345202,-4.554267 -2.57551,-6.33634 -1.230308,-1.782073 -4.509077,-4.187049 -4.509077,-4.187049 z"
     id="path3442"
     inkscape:connector-curvature="0"
     sodipodi:nodetypes="ccccccccccccccccczzzcc" />
  <path
     style="fill:#0c236b;fill-rule:evenodd;stroke:none;stroke-width:1px;stroke-linecap:butt;stroke-linejoin:miter;stroke-opacity:1;fill-opacity:1"
     d="m 144.22196,15.785499 13.85207,-2.256174 4.93446,41.129283 18.90255,-3.327334 -0.10828,9.343023 -31.463,5.367417 z"
     id="path3444"
     inkscape:connector-curvature="0" />
  <path
     style="fill:#0c236b;fill-rule:evenodd;stroke:none;stroke-width:1px;stroke-linecap:butt;stroke-linejoin:miter;stroke-opacity:1;fill-opacity:1"
     d="m 178.69358,9.1261847 6.65147,51.4389053 c 0,0 13.42669,-1.823992 13.21013,-2.25385 -0.21656,-0.429858 -4.72564,-42.525741 -4.72564,-42.525741 0,0 7.09232,-1.28725 7.73427,-1.503341 0.64194,-0.216091 5.81431,-1.123485 7.84254,-0.216091 2.02823,0.907394 3.00118,2.651545 3.5423,4.189373 0.54112,1.537828 0.44943,2.687743 -0.10828,4.293934 -0.55771,1.606191 -2.29426,3.621314 -3.5423,4.726115 -1.24804,1.104801 -2.00051,1.658781 -3.55003,2.040083 -1.54952,0.381302 -5.47586,-0.213768 -5.47586,-0.213768 l 15.1437,25.986662 -0.31711,0.322974 14.9194,-3.006682 -14.16918,-20.619245 c 0,0 4.70305,-2.860236 6.22609,-4.510024 1.52304,-1.649788 2.39887,-3.177038 3.00863,-4.939883 0.60976,-1.762845 0.69601,-4.833666 0.64194,-5.36974 -0.10828,-1.073483 0.14257,-2.921889 -0.53366,-4.723791 -0.67623,-1.801902 -3.43402,-5.3720641 -3.86713,-5.5858314 -0.43312,-0.2137672 -3.76456,-2.1634712 -5.8007,-2.5768247 -2.03614,-0.4133535 -6.11781,0.1068836 -6.11781,0.1068836 z"
     id="path3446"
     inkscape:connector-curvature="0"
     sodipodi:nodetypes="ccscszzzzzccccczzszszcc" />
</svg>
