<?xml version="1.0" encoding="UTF-8"?>
<svg width="170px" height="46px" viewBox="0 0 170 46" version="1.1" xmlns="http://www.w3.org/2000/svg" xmlns:xlink="http://www.w3.org/1999/xlink">
    <g id="Page-1" stroke="none" stroke-width="1" fill="none" fill-rule="evenodd">
        <g id="Home-Concept-v1.0-b" transform="translate(-199.000000, -155.000000)">
            <g id="Logo-Option-B-Final" transform="translate(199.000000, 155.000000)">
                <g id="Mark">
                    <g id="M" fill="#000000">
                        <g id="Group-7">
                            <rect id="Rectangle" opacity="0.2" x="-8.43769499e-15" y="5.77315973e-15" width="4" height="4"></rect>
                            <rect id="Rectangle" x="0" y="14" width="4" height="4"></rect>
                            <rect id="Rectangle" x="0" y="28" width="4" height="4"></rect>
                            <rect id="Rectangle" opacity="0.2" x="0" y="42" width="4" height="4"></rect>
                        </g>
                        <g id="Group-8" transform="translate(13.347826, 0.000000)">
                            <rect id="Rectangle" x="0.652173913" y="14" width="4" height="4"></rect>
                            <rect id="Rectangle" x="0.652173913" y="0" width="4" height="4"></rect>
                            <rect id="Rectangle" x="0.652173913" y="28" width="4" height="4"></rect>
                            <rect id="Rectangle" x="0.652173913" y="42" width="4" height="4"></rect>
                        </g>
                        <g id="Group-7" transform="translate(28.000000, 0.000000)">
                            <rect id="Rectangle" x="-8.43769499e-15" y="5.77315973e-15" width="4" height="4"></rect>
                            <rect id="Rectangle" x="-4.4408921e-16" y="14" width="4" height="4"></rect>
                            <rect id="Rectangle" x="4.4408921e-16" y="28" width="4" height="4"></rect>
                            <rect id="Rectangle" x="4.4408921e-16" y="42" width="4" height="4"></rect>
                        </g>
                        <g id="Group-7" transform="translate(42.000000, 0.000000)">
                            <rect id="Rectangle" opacity="0.2" x="-8.43769499e-15" y="5.77315973e-15" width="4" height="4"></rect>
                            <rect id="Rectangle" x="-4.4408921e-16" y="14" width="4" height="4"></rect>
                            <rect id="Rectangle" x="4.4408921e-16" y="28" width="4" height="4"></rect>
                            <rect id="Rectangle" opacity="0.2" x="4.4408921e-16" y="42" width="4" height="4"></rect>
                        </g>
                    </g>
                    <g id="Connections" transform="translate(0.000000, 1.000000)" stroke="#000000" stroke-linecap="square">
                        <line x1="16.5" y1="43.5" x2="1.5" y2="28.5" id="Line-4" opacity="0.2"></line>
                        <line x1="44.5" y1="43.5" x2="29.5" y2="28.5" id="Line-4" opacity="0.2" transform="translate(37.000000, 36.000000) scale(-1, 1) translate(-37.000000, -36.000000) "></line>
                        <line x1="44.5" y1="15.5" x2="29.5" y2="0.5" id="Line-4" opacity="0.2" transform="translate(37.000000, 8.000000) scale(-1, -1) translate(-37.000000, -8.000000) "></line>
                        <line x1="16.5" y1="15.5" x2="1.5" y2="0.5" id="Line-4" opacity="0.2" transform="translate(9.000000, 8.000000) scale(1, -1) translate(-9.000000, -8.000000) "></line>
                        <line x1="2" y1="15.5" x2="2" y2="29.5" id="Line-5" opacity="0.2"></line>
                        <line x1="44" y1="15.5" x2="44" y2="29.5" id="Line-5" opacity="0.2"></line>
                        <line x1="16.5" y1="1" x2="29.5" y2="1" id="Line-6" opacity="0.2"></line>
                        <line x1="16.5" y1="43" x2="29.5" y2="43" id="Line-6" opacity="0.2"></line>
                        <line x1="16" y1="0.5" x2="16" y2="43.5" id="Line-7" opacity="0.2"></line>
                        <line x1="30" y1="0.5" x2="30" y2="43.5" id="Line-7" opacity="0.2"></line>
                        <line x1="43.5" y1="15" x2="0.5" y2="15" id="Line-7" opacity="0.2"></line>
                        <line x1="43.5" y1="29" x2="0.5" y2="29" id="Line-7" opacity="0.2"></line>
                        <g id="M" transform="translate(14.500000, 14.076457)">
                            <line x1="1.5" y1="15.4235429" x2="1.5" y2="1.4235429" id="Line-8"></line>
                            <line x1="2.5" y1="14.9235429" x2="16.5" y2="14.9235429" id="Line-8" opacity="0.2"></line>
                            <line x1="15.5" y1="15.4235429" x2="15.5" y2="1.4235429" id="Line-8"></line>
                            <line x1="8" y1="7.4235429" x2="15.6640783" y2="1" id="Line-8" transform="translate(11.832039, 4.211771) rotate(-8.000000) translate(-11.832039, -4.211771) "></line>
                            <line x1="1.21156602" y1="7.4235429" x2="8.87564435" y2="1" id="Line-8" transform="translate(5.043605, 4.211771) scale(-1, 1) rotate(-7.000000) translate(-5.043605, -4.211771) "></line>
                        </g>
                    </g>
                </g>
                <path d="M73.432,33 L73.432,16.116 L73.936,16.116 L77.296,33 L83.4,33 L86.76,16.116 L87.264,16.116 L87.264,33 L90.848,33 L90.848,13.4 L83.988,13.4 L80.6,30.48 L80.096,30.48 L76.708,13.4 L69.848,13.4 L69.848,33 L73.432,33 Z M107.2,33 L107.2,29.64 L98.24,29.64 L98.24,13.4 L94.544,13.4 L94.544,33 L107.2,33 Z M128.592,38.6 L128.592,35.408 L122.768,35.408 C120.752,35.408 119.03,35.0486667 117.602,34.33 C116.174,33.6113333 115.082,32.552 114.326,31.152 C113.57,29.752 113.192,28.0346667 113.192,26 L113.192,26 L113.192,25.552 C113.192,23.5173333 113.560667,21.8046667 114.298,20.414 C115.035333,19.0233333 116.085333,17.9733333 117.448,17.264 C118.810667,16.5546667 120.434667,16.2 122.32,16.2 L122.32,16.2 L122.712,16.2 C124.597333,16.2 126.156,16.5453333 127.388,17.236 C128.62,17.9266667 129.539333,18.9113333 130.146,20.19 C130.752667,21.4686667 131.056,22.9946667 131.056,24.768 L131.056,24.768 L131.056,26.784 C131.056,27.8106667 130.934667,28.5806667 130.692,29.094 C130.449333,29.6073333 130.057333,29.864 129.516,29.864 L129.516,29.864 L129.404,29.864 C129.086667,29.864 128.862667,29.7846667 128.732,29.626 C128.601333,29.4673333 128.536,29.2293333 128.536,28.912 L128.536,28.912 L128.536,19 L125.12,19 L125.12,20.68 L124.616,20.68 C124.429333,20.344 124.196,20.036 123.916,19.756 C123.636,19.476 123.272,19.252 122.824,19.084 C122.376,18.916 121.806667,18.832 121.116,18.832 C120.014667,18.832 119.058,19.14 118.246,19.756 C117.434,20.372 116.808667,21.2026667 116.37,22.248 C115.931333,23.2933333 115.712,24.4693333 115.712,25.776 L115.712,25.776 L115.712,26.224 C115.712,27.512 115.940667,28.6786667 116.398,29.724 C116.855333,30.7693333 117.508667,31.6046667 118.358,32.23 C119.207333,32.8553333 120.22,33.168 121.396,33.168 C122.086667,33.168 122.656,33.07 123.104,32.874 C123.552,32.678 123.920667,32.412 124.21,32.076 C124.499333,31.74 124.718667,31.376 124.868,30.984 L124.868,30.984 L125.372,30.984 L125.372,31.04 C125.372,31.6373333 125.605333,32.1133333 126.072,32.468 C126.538667,32.8226667 127.210667,33 128.088,33 L128.088,33 L129.712,33 C131.317333,33 132.521333,32.454 133.324,31.362 C134.126667,30.27 134.528,28.744 134.528,26.784 L134.528,26.784 L134.528,24.712 C134.528,22.3786667 134.042667,20.3346667 133.072,18.58 C132.101333,16.8253333 130.738667,15.458 128.984,14.478 C127.229333,13.498 125.176,13.008 122.824,13.008 L122.824,13.008 L122.208,13.008 C119.632,13.008 117.410667,13.512 115.544,14.52 C113.677333,15.528 112.24,16.9606667 111.232,18.818 C110.224,20.6753333 109.72,22.8826667 109.72,25.44 L109.72,25.44 L109.72,26.112 C109.72,28.6693333 110.233333,30.8813333 111.26,32.748 C112.286667,34.6146667 113.756667,36.0566667 115.67,37.074 C117.583333,38.0913333 119.874667,38.6 122.544,38.6 L122.544,38.6 L128.592,38.6 Z M122.124,30.144 C121.209333,30.144 120.490667,29.7893333 119.968,29.08 C119.445333,28.3706667 119.184,27.4 119.184,26.168 L119.184,26.168 L119.184,25.832 C119.184,24.6 119.445333,23.6293333 119.968,22.92 C120.490667,22.2106667 121.209333,21.856 122.124,21.856 C123.038667,21.856 123.766667,22.2106667 124.308,22.92 C124.849333,23.6293333 125.12,24.6 125.12,25.832 L125.12,25.832 L125.12,26.168 C125.12,27.4 124.849333,28.3706667 124.308,29.08 C123.766667,29.7893333 123.038667,30.144 122.124,30.144 Z M145.56,33.392 C147.968,33.392 149.83,32.734 151.146,31.418 C152.462,30.102 153.12,28.296 153.12,26 L153.12,26 L153.12,25.608 L149.48,25.608 L149.48,26.112 C149.48,27.2506667 149.158,28.198 148.514,28.954 C147.87,29.71 146.885333,30.088 145.56,30.088 C144.253333,30.088 143.226667,29.682 142.48,28.87 C141.733333,28.058 141.36,26.9706667 141.36,25.608 L141.36,25.608 L141.36,20.792 C141.36,19.4106667 141.733333,18.3186667 142.48,17.516 C143.226667,16.7133333 144.253333,16.312 145.56,16.312 C146.885333,16.312 147.87,16.6853333 148.514,17.432 C149.158,18.1786667 149.48,19.1306667 149.48,20.288 L149.48,20.288 L149.48,20.568 L153.12,20.568 L153.12,20.4 C153.12,18.104 152.462,16.298 151.146,14.982 C149.83,13.666 147.968,13.008 145.56,13.008 C143.133333,13.008 141.210667,13.6846667 139.792,15.038 C138.373333,16.3913333 137.664,18.328 137.664,20.848 L137.664,20.848 L137.664,25.552 C137.664,28.072 138.373333,30.0086667 139.792,31.362 C141.210667,32.7153333 143.133333,33.392 145.56,33.392 Z M168.8,33 L168.8,29.64 L159.84,29.64 L159.84,13.4 L156.144,13.4 L156.144,33 L168.8,33 Z" id="ML@CL" fill="#000000" fill-rule="nonzero"></path>
            </g>
        </g>
    </g>
</svg>