<?xml version="1.0" encoding="UTF-8" standalone="no"?>
<!-- Created with Inkscape (http://www.inkscape.org/) -->

<svg
   xmlns:dc="http://purl.org/dc/elements/1.1/"
   xmlns:cc="http://creativecommons.org/ns#"
   xmlns:rdf="http://www.w3.org/1999/02/22-rdf-syntax-ns#"
   xmlns:svg="http://www.w3.org/2000/svg"
   xmlns="http://www.w3.org/2000/svg"
   xmlns:sodipodi="http://sodipodi.sourceforge.net/DTD/sodipodi-0.dtd"
   xmlns:inkscape="http://www.inkscape.org/namespaces/inkscape"
   id="svg3426"
   version="1.1"
   inkscape:version="0.91 r13725"
   width="197.05333"
   height="81.453583"
   viewBox="0 0 197.05333 81.453583"
   sodipodi:docname="logo-dmlr.svg">
  <metadata
     id="metadata3432">
    <rdf:RDF>
      <cc:Work
         rdf:about="">
        <dc:format>image/svg+xml</dc:format>
        <dc:type
           rdf:resource="http://purl.org/dc/dcmitype/StillImage" />
        <dc:title></dc:title>
      </cc:Work>
    </rdf:RDF>
  </metadata>
  <defs
     id="defs3430" />
  <sodipodi:namedview
     pagecolor="#ffffff"
     bordercolor="#666666"
     borderopacity="1"
     objecttolerance="10"
     gridtolerance="10"
     guidetolerance="10"
     inkscape:pageopacity="0"
     inkscape:pageshadow="2"
     inkscape:window-width="2196"
     inkscape:window-height="1037"
     id="namedview3428"
     showgrid="false"
     inkscape:zoom="9.312"
     inkscape:cx="66.745208"
     inkscape:cy="31.977782"
     inkscape:window-x="555"
     inkscape:window-y="115"
     inkscape:window-maximized="0"
     inkscape:current-layer="svg3426"
     fit-margin-top="0"
     fit-margin-left="0"
     fit-margin-right="0"
     fit-margin-bottom="0" />
  <path
     style="fill:#0c236b;fill-rule:evenodd;stroke:none;stroke-width:1px;stroke-linecap:butt;stroke-linejoin:miter;stroke-opacity:1;fill-opacity:1"
     d="M 24.482422 26.894531 C 23.798965 26.891284 23.119313 26.896676 22.441406 26.898438 C 19.72978 26.905438 14.597656 27.542969 14.597656 27.542969 L -0.328125 29.691406 L 6.0136719 81.34375 L 25.982422 78.230469 C 25.982422 78.230469 30.26917 77.523364 32.75 76.621094 C 35.23083 75.718824 38.194017 74.759935 40.693359 72.644531 C 43.192701 70.529127 45.636914 66.869547 47.035156 63.947266 C 48.433398 61.024985 49.046008 58.482555 49.287109 55.572266 C 49.52821 52.661977 49.056227 49.667245 48.427734 46.765625 C 47.799241 43.864005 47.002137 40.885896 45.527344 38.28125 C 44.052551 35.676604 42.227989 33.269137 39.726562 31.408203 C 37.225136 29.547269 33.74659 28.269532 30.816406 27.542969 C 28.618768 26.998047 26.532791 26.904272 24.482422 26.894531 z M 22.011719 36.935547 C 22.495352 36.925823 22.978954 36.939116 23.408203 36.994141 C 25.125199 37.214239 27.678096 37.923967 29.208984 38.818359 C 30.739872 39.712751 31.369381 40.397998 32.533203 41.935547 C 33.697025 43.473096 35.095385 45.792837 35.759766 48.162109 C 36.424147 50.531381 36.492863 53.761018 36.292969 55.894531 C 35.954428 59.023454 33.310328 63.42063 32.109375 64.699219 C 30.908422 65.977808 29.964832 66.349877 28.666016 66.955078 C 27.3672 67.560279 26.127067 67.831518 24.375 68.244141 C 22.622933 68.656764 18.148438 69.318359 18.148438 69.318359 L 13.630859 37.958984 L 19.107422 37.208984 C 19.107422 37.208984 20.56082 36.964718 22.011719 36.935547 z "
     id="path4272" />
  <path
     style="fill:#0c236b;fill-opacity:1;fill-rule:evenodd;stroke:none;stroke-width:1px;stroke-linecap:butt;stroke-linejoin:miter;stroke-opacity:1"
     d="m 43.381196,23.032675 25.02808,-3.973282 12.77701,31.142634 2.25067,-0.320651 5.37532,-34.579175 19.753314,-3.006683 6.12554,50.363098 -10.74289,2.042407 -5.367584,-37.588182 -2.35895,0.216091 -6.44265,40.162683 -12.02678,2.14929 -14.393471,-36.191724 -2.258406,0.429858 2.79207,37.372091 -14.169175,2.469941 -1.220579,-9.755322 c 0,0 2.632382,-4.110504 2.803312,-9.266669 0.170931,-5.156165 -0.93728,-9.407158 -2.138883,-13.026184 -1.201603,-3.619026 -4.505568,-8.406953 -4.505568,-8.406953 z"
     id="path3442"
     inkscape:connector-curvature="0"
     sodipodi:nodetypes="ccccccccccccccccczzcc" />
  <path
     style="fill:#0c236b;fill-opacity:1;fill-rule:evenodd;stroke:none;stroke-width:1px;stroke-linecap:butt;stroke-linejoin:miter;stroke-opacity:1"
     d="m 111.25712,11.86566 13.85207,-2.2561738 4.93446,41.1292828 18.90255,-3.327334 -0.10828,9.343023 -31.463,5.367417 z"
     id="path3444"
     inkscape:connector-curvature="0" />
  <path
     style="fill:#0c236b;fill-opacity:1;fill-rule:evenodd;stroke:none;stroke-width:1px;stroke-linecap:butt;stroke-linejoin:miter;stroke-opacity:1"
     d="m 145.72874,5.2063459 6.65147,51.4389051 c 0,0 13.42669,-1.823992 13.21013,-2.25385 -0.21656,-0.429858 -4.72564,-42.525741 -4.72564,-42.525741 0,0 7.09232,-1.28725 7.73427,-1.503341 0.64194,-0.216091 5.81431,-1.1234848 7.84254,-0.216091 2.02823,0.907394 3.00118,2.651545 3.5423,4.189373 0.54112,1.537828 0.44943,2.687743 -0.10828,4.293934 -0.55771,1.606191 -2.29426,3.621314 -3.5423,4.726115 -1.24804,1.104801 -2.00051,1.658781 -3.55003,2.040083 -1.54952,0.381302 -5.47586,-0.213768 -5.47586,-0.213768 l 15.1437,25.986662 -0.31711,0.322974 14.9194,-3.006682 -14.16918,-20.619245 c 0,0 4.70305,-2.860236 6.22609,-4.510024 1.52304,-1.649788 2.39887,-3.177038 3.00863,-4.939883 0.60976,-1.762845 0.69601,-4.833666 0.64194,-5.36974 -0.10828,-1.073483 0.14257,-2.921889 -0.53366,-4.7237908 -0.67623,-1.801902 -3.43402,-5.3720641 -3.86713,-5.5858314 -0.43312,-0.2137672 -3.76456,-2.16347119 -5.8007,-2.57682469 -2.03614,-0.4133535 -6.11781,0.1068836 -6.11781,0.1068836 z"
     id="path3446"
     inkscape:connector-curvature="0"
     sodipodi:nodetypes="ccscszzzzzccccczzszszcc" />
</svg>
