<?xml version="1.0" encoding="UTF-8" standalone="no"?>
<!-- Created with Inkscape (http://www.inkscape.org/) -->

<svg
   xmlns:dc="http://purl.org/dc/elements/1.1/"
   xmlns:cc="http://creativecommons.org/ns#"
   xmlns:rdf="http://www.w3.org/1999/02/22-rdf-syntax-ns#"
   xmlns:svg="http://www.w3.org/2000/svg"
   xmlns="http://www.w3.org/2000/svg"
   xmlns:sodipodi="http://sodipodi.sourceforge.net/DTD/sodipodi-0.dtd"
   xmlns:inkscape="http://www.inkscape.org/namespaces/inkscape"
   id="svg3426"
   version="1.1"
   inkscape:version="0.91 r13725"
   width="115.01926"
   height="122.95039"
   viewBox="0 0 115.01926 122.95039"
   sodipodi:docname="logo-dmlr-square.svg">
  <metadata
     id="metadata3432">
    <rdf:RDF>
      <cc:Work
         rdf:about="">
        <dc:format>image/svg+xml</dc:format>
        <dc:type
           rdf:resource="http://purl.org/dc/dcmitype/StillImage" />
        <dc:title></dc:title>
      </cc:Work>
    </rdf:RDF>
  </metadata>
  <defs
     id="defs3430" />
  <sodipodi:namedview
     pagecolor="#ffffff"
     bordercolor="#666666"
     borderopacity="1"
     objecttolerance="10"
     gridtolerance="10"
     guidetolerance="10"
     inkscape:pageopacity="0"
     inkscape:pageshadow="2"
     inkscape:window-width="2196"
     inkscape:window-height="1037"
     id="namedview3428"
     showgrid="false"
     inkscape:zoom="6.5845783"
     inkscape:cx="89.291296"
     inkscape:cy="60.789861"
     inkscape:window-x="1067"
     inkscape:window-y="161"
     inkscape:window-maximized="0"
     inkscape:current-layer="svg3426"
     fit-margin-top="0"
     fit-margin-left="0"
     fit-margin-right="0"
     fit-margin-bottom="0" />
  <path
     style="fill:#0c236b;fill-opacity:1;fill-rule:evenodd;stroke:none;stroke-width:1px;stroke-linecap:butt;stroke-linejoin:miter;stroke-opacity:1"
     d="m 24.810547,14.599013 c -0.683457,-0.0032 -1.363109,0.0021 -2.041016,0.0039 -2.711626,0.007 -7.84375,0.644531 -7.84375,0.644531 L 0,17.395888 6.3417969,69.048232 26.310547,65.934951 c 0,0 4.286748,-0.707105 6.767578,-1.609375 2.48083,-0.90227 5.444017,-1.861159 7.943359,-3.976563 2.499342,-2.115404 4.943555,-5.774984 6.341797,-8.697265 1.398242,-2.922281 2.010852,-5.464711 2.251953,-8.375 0.241101,-2.910289 -0.230882,-5.905021 -0.859375,-8.806641 -0.628493,-2.90162 -1.425597,-5.879729 -2.90039,-8.484375 -1.474793,-2.604646 -3.299355,-5.012113 -5.800782,-6.873047 -2.501426,-1.860934 -5.979972,-3.138671 -8.910156,-3.865234 -2.197638,-0.544922 -4.283615,-0.638697 -6.333984,-0.648438 z m -2.470703,10.041016 c 0.483633,-0.0097 0.967235,0.0036 1.396484,0.05859 1.716996,0.220098 4.269893,0.929826 5.800781,1.824218 1.530888,0.894392 2.160397,1.579639 3.324219,3.117188 1.163822,1.537549 2.562182,3.85729 3.226563,6.226562 0.664381,2.369272 0.733097,5.598909 0.533203,7.732422 -0.338541,3.128923 -2.982641,7.526099 -4.183594,8.804688 -1.200953,1.278589 -2.144543,1.650658 -3.443359,2.255859 -1.298816,0.605201 -2.538949,0.87644 -4.291016,1.289063 -1.752067,0.412623 -6.226562,1.074218 -6.226562,1.074218 l -4.517579,-31.359375 5.476563,-0.75 c 0,0 1.453398,-0.244266 2.904297,-0.273437 z"
     id="path4272"
     inkscape:connector-curvature="0" />
  <path
     style="fill:#0c236b;fill-opacity:1;fill-rule:evenodd;stroke:none;stroke-width:1px;stroke-linecap:butt;stroke-linejoin:miter;stroke-opacity:1"
     d="m 43.709321,10.737157 25.02808,-3.973282 12.77701,31.142634 2.25067,-0.320651 L 89.140401,3.006683 108.89372,0 l 6.12554,50.363098 -10.74289,2.042407 -5.367589,-37.588182 -2.35895,0.216091 -6.44265,40.162683 -12.02678,2.14929 -14.393471,-36.191724 -2.258406,0.429858 2.79207,37.372091 -14.169175,2.469941 -1.220579,-9.755322 c 0,0 2.632382,-4.110504 2.803312,-9.266669 0.170931,-5.156165 -0.93728,-9.407158 -2.138883,-13.026184 -1.201603,-3.619026 -4.505568,-8.406953 -4.505568,-8.406953 z"
     id="path3442"
     inkscape:connector-curvature="0"
     sodipodi:nodetypes="ccccccccccccccccczzcc" />
  <path
     style="fill:#0c236b;fill-opacity:1;fill-rule:evenodd;stroke:none;stroke-width:1px;stroke-linecap:butt;stroke-linejoin:miter;stroke-opacity:1"
     d="m 17.164046,72.694179 13.85207,-2.256174 4.93446,41.129285 18.90255,-3.32734 -0.10828,9.34302 -31.463,5.36742 z"
     id="path3444"
     inkscape:connector-curvature="0" />
  <path
     style="fill:#0c236b;fill-opacity:1;fill-rule:evenodd;stroke:none;stroke-width:1px;stroke-linecap:butt;stroke-linejoin:miter;stroke-opacity:1"
     d="m 51.635666,66.034864 6.65147,51.438906 c 0,0 13.42669,-1.82399 13.21013,-2.25385 -0.21656,-0.42986 -4.72564,-42.525741 -4.72564,-42.525741 0,0 7.09232,-1.28725 7.73427,-1.503341 0.64194,-0.216091 5.81431,-1.123485 7.84254,-0.216091 2.02823,0.907394 3.00118,2.651545 3.5423,4.189373 0.54112,1.537828 0.44943,2.687743 -0.10828,4.293934 -0.55771,1.606191 -2.29426,3.621314 -3.5423,4.726115 -1.24804,1.104801 -2.00051,1.658781 -3.55003,2.040083 -1.54952,0.381302 -5.47586,-0.213768 -5.47586,-0.213768 l 15.1437,25.986656 -0.31711,0.32298 14.919394,-3.00668 -14.169174,-20.619248 c 0,0 4.703049,-2.860235 6.226089,-4.510023 1.52304,-1.649788 2.39887,-3.177038 3.00863,-4.939883 0.60976,-1.762845 0.69601,-4.833666 0.64194,-5.36974 -0.10828,-1.073483 0.14257,-2.921889 -0.53366,-4.723791 -0.67623,-1.801902 -3.43402,-5.372064 -3.86713,-5.585832 -0.43312,-0.213767 -3.764559,-2.163471 -5.800699,-2.576824 -2.03614,-0.413354 -6.11781,0.106883 -6.11781,0.106883 z"
     id="path3446"
     inkscape:connector-curvature="0"
     sodipodi:nodetypes="ccscszzzzzccccczzszszcc" />
</svg>
