<?xml version="1.0" encoding="UTF-8" standalone="no"?>
<!-- Created with Inkscape (http://www.inkscape.org/) -->

<svg
   xmlns:dc="http://purl.org/dc/elements/1.1/"
   xmlns:cc="http://creativecommons.org/ns#"
   xmlns:rdf="http://www.w3.org/1999/02/22-rdf-syntax-ns#"
   xmlns:svg="http://www.w3.org/2000/svg"
   xmlns="http://www.w3.org/2000/svg"
   xmlns:sodipodi="http://sodipodi.sourceforge.net/DTD/sodipodi-0.dtd"
   xmlns:inkscape="http://www.inkscape.org/namespaces/inkscape"
   id="svg3426"
   version="1.1"
   inkscape:version="0.91 r13725"
   width="197.05333"
   height="81.453583"
   viewBox="0 0 197.05333 81.453583"
   sodipodi:docname="logo-pmlr.svg">
  <metadata
     id="metadata3432">
    <rdf:RDF>
      <cc:Work
         rdf:about="">
        <dc:format>image/svg+xml</dc:format>
        <dc:type
           rdf:resource="http://purl.org/dc/dcmitype/StillImage" />
        <dc:title></dc:title>
      </cc:Work>
    </rdf:RDF>
  </metadata>
  <defs
     id="defs3430" />
  <sodipodi:namedview
     pagecolor="#ffffff"
     bordercolor="#666666"
     borderopacity="1"
     objecttolerance="10"
     gridtolerance="10"
     guidetolerance="10"
     inkscape:pageopacity="0"
     inkscape:pageshadow="2"
     inkscape:window-width="2196"
     inkscape:window-height="1037"
     id="namedview3428"
     showgrid="false"
     inkscape:zoom="9.312"
     inkscape:cx="76.463846"
     inkscape:cy="46.196465"
     inkscape:window-x="755"
     inkscape:window-y="194"
     inkscape:window-maximized="0"
     inkscape:current-layer="svg3426"
     fit-margin-top="0"
     fit-margin-left="0"
     fit-margin-right="0"
     fit-margin-bottom="0" />
  <path
     style="fill:#0c236b;fill-opacity:1;fill-rule:evenodd;stroke:none;stroke-width:1px;stroke-linecap:butt;stroke-linejoin:miter;stroke-opacity:1"
     d="M 36.570312,24.607505 C 36.148,24.591965 35.700554,24.602705 35.228515,24.644615 30.510298,25.063143 0,29.586021 0,29.586021 5.800699,82.098409 5.908203,81.453209 5.908203,81.453209 l 13.636719,-2.041016 -2.46875,-20.61914 c 3.873827,-0.649691 11.824502,-1.771508 16.427734,-3.220703 5.617007,-1.99691 9.998967,-6.3595 12.669922,-11.060547 1.677193,-4.684337 0.938758,-11.560861 0,-13.103516 -0.938758,-1.542655 -1.809583,-3.106019 -3.433594,-4.273437 -1.421009,-1.021491 -3.213736,-2.418576 -6.169922,-2.527344 z m -9.689453,10.554687 c 1.90099,0.0056 4.070407,0.348032 4.90625,0.863281 1.391287,0.85765 2.104512,2.010558 2.466797,4.083985 0.362285,2.073427 -1.033167,5.050767 -2.041016,6.335937 -1.210982,1.544198 -1.848282,1.857785 -4.40039,2.898438 -2.552108,1.040653 -11.060547,2.148437 -11.060547,2.148437 L 15.035156,37.101645 c 0,0 8.489757,-1.579378 10.09375,-1.826172 0.514294,-0.07913 1.11829,-0.115132 1.751953,-0.113281 z"
     id="path3438"
     inkscape:connector-curvature="0" />
  <path
     style="fill:#0c236b;fill-opacity:1;fill-rule:evenodd;stroke:none;stroke-width:1px;stroke-linecap:butt;stroke-linejoin:miter;stroke-opacity:1"
     d="m 43.381196,23.032675 25.02808,-3.973282 12.77701,31.142634 2.25067,-0.320651 5.37532,-34.579175 19.753314,-3.006683 6.12554,50.363098 -10.74289,2.042407 -5.367584,-37.588182 -2.35895,0.216091 -6.44265,40.162683 -12.02678,2.14929 -14.393471,-36.191724 -2.258406,0.429858 2.79207,37.372091 -14.169175,2.469941 -2.79207,-23.625927 c 0,0 2.815077,-3.352892 3.542294,-6.12025 0.727217,-2.767358 0.448068,-7.328525 -0.10828,-10.095855 -0.556348,-2.76733 -1.345202,-4.554267 -2.57551,-6.33634 C 46.55942,25.760626 43.280651,23.35565 43.280651,23.35565 Z"
     id="path3442"
     inkscape:connector-curvature="0"
     sodipodi:nodetypes="ccccccccccccccccczzzcc" />
  <path
     style="fill:#0c236b;fill-opacity:1;fill-rule:evenodd;stroke:none;stroke-width:1px;stroke-linecap:butt;stroke-linejoin:miter;stroke-opacity:1"
     d="m 111.25712,11.86566 13.85207,-2.2561738 4.93446,41.1292828 18.90255,-3.327334 -0.10828,9.343023 -31.463,5.367417 z"
     id="path3444"
     inkscape:connector-curvature="0" />
  <path
     style="fill:#0c236b;fill-opacity:1;fill-rule:evenodd;stroke:none;stroke-width:1px;stroke-linecap:butt;stroke-linejoin:miter;stroke-opacity:1"
     d="m 145.72874,5.2063459 6.65147,51.4389051 c 0,0 13.42669,-1.823992 13.21013,-2.25385 -0.21656,-0.429858 -4.72564,-42.525741 -4.72564,-42.525741 0,0 7.09232,-1.28725 7.73427,-1.503341 0.64194,-0.216091 5.81431,-1.1234848 7.84254,-0.216091 2.02823,0.907394 3.00118,2.651545 3.5423,4.189373 0.54112,1.537828 0.44943,2.687743 -0.10828,4.293934 -0.55771,1.606191 -2.29426,3.621314 -3.5423,4.726115 -1.24804,1.104801 -2.00051,1.658781 -3.55003,2.040083 -1.54952,0.381302 -5.47586,-0.213768 -5.47586,-0.213768 l 15.1437,25.986662 -0.31711,0.322974 14.9194,-3.006682 -14.16918,-20.619245 c 0,0 4.70305,-2.860236 6.22609,-4.510024 1.52304,-1.649788 2.39887,-3.177038 3.00863,-4.939883 0.60976,-1.762845 0.69601,-4.833666 0.64194,-5.36974 -0.10828,-1.073483 0.14257,-2.921889 -0.53366,-4.7237908 -0.67623,-1.801902 -3.43402,-5.3720641 -3.86713,-5.5858314 -0.43312,-0.2137672 -3.76456,-2.16347119 -5.8007,-2.57682469 -2.03614,-0.4133535 -6.11781,0.1068836 -6.11781,0.1068836 z"
     id="path3446"
     inkscape:connector-curvature="0"
     sodipodi:nodetypes="ccscszzzzzccccczzszszcc" />
</svg>
