<?xml version="1.0" encoding="UTF-8"?>
<svg width="10px" height="21px" viewBox="0 0 10 21" version="1.1" xmlns="http://www.w3.org/2000/svg" xmlns:xlink="http://www.w3.org/1999/xlink">
    <g id="Artboard" stroke="none" stroke-width="1" fill="none" fill-rule="evenodd">
        <g id="social-fb-dark" transform="translate(-21.000000, -14.000000)">
            <g id="Play"></g>
            <g id="Path" transform="translate(21.000000, 14.000000)" fill="#000000" fill-rule="nonzero">
                <path d="M2.57785714,20.5942857 L2.57785714,11.0307143 L0.0471428571,11.0307143 L0.0471428571,7.58785714 L2.57785714,7.58785714 C2.57785714,7.58785714 2.57785714,6.17571429 2.57785714,4.64714286 C2.57785714,2.33714286 4.06928571,0.213571429 7.51142857,0.213571429 C8.90571429,0.213571429 9.93714286,0.347857143 9.93714286,0.347857143 L9.85642857,3.56214286 C9.85642857,3.56214286 8.80571429,3.55214286 7.65928571,3.55214286 C6.42071429,3.55214286 6.22,4.12571429 6.22,5.07428571 C6.22,5.82642857 6.22,3.47285714 6.22,7.58857143 L9.955,7.58857143 L9.79142857,11.0314286 L6.21857143,11.0314286 L6.21857143,20.595 L2.57785714,20.5942857 L2.57785714,20.5942857 Z"></path>
            </g>
        </g>
    </g>
</svg>