<?xml version="1.0" encoding="UTF-8"?>
<svg width="51px" height="50px" viewBox="0 0 51 50" version="1.1" xmlns="http://www.w3.org/2000/svg" xmlns:xlink="http://www.w3.org/1999/xlink">
    <title>AC97BC5A-6E5E-402D-BCB3-41E9CA0BE88F</title>
    <g id="Page-1" stroke="none" stroke-width="1" fill="none" fill-rule="evenodd">
        <g id="Home-Concept-v1.0-b" transform="translate(-1399.000000, -3931.000000)" fill="#FFFFFF">
            <g id="Footer" transform="translate(0.000000, 3824.000000)">
                <g id="social-tw" transform="translate(1399.000000, 107.000000)">
                    <g id="Play">
                        <rect id="Rectangle" x="1" y="0" width="4" height="4"></rect>
                        <rect id="Rectangle" x="47" y="0" width="4" height="4"></rect>
                        <rect id="Rectangle" x="47" y="46" width="4" height="4"></rect>
                        <rect id="Rectangle" x="0" y="46" width="4" height="4"></rect>
                    </g>
                    <g transform="translate(14.000000, 15.000000)" fill-rule="nonzero" id="Path">
                        <path d="M23.6682857,3.04885714 C22.8094286,3.43028571 21.8862857,3.68657143 20.9194286,3.80228571 C21.9068571,3.21171429 22.6671429,2.27228571 23.0237143,1.15371429 C22.1005714,1.70314286 21.0754286,2.10085714 19.9834286,2.316 C19.1082857,1.38514286 17.8637143,0.803142857 16.4897143,0.803142857 C13.8445714,0.803142857 11.7017143,2.94771429 11.7017143,5.58942857 C11.7017143,5.96485714 11.7445714,6.33085714 11.826,6.67971429 C7.848,6.48171429 4.32085714,4.57371429 1.95857143,1.67742857 C1.54714286,2.38542857 1.31057143,3.20742857 1.31057143,4.086 C1.31057143,5.74714286 2.15571429,7.21114286 3.43971429,8.07 C2.65457143,8.04514286 1.91657143,7.82914286 1.272,7.47085714 C1.27114286,7.49057143 1.27114286,7.51285714 1.27114286,7.53085714 C1.27114286,9.85114286 2.92114286,11.7865714 5.112,12.2271429 C4.71,12.336 4.28571429,12.39 3.85028571,12.39 C3.54171429,12.39 3.24171429,12.3608571 2.94942857,12.3017143 C3.55885714,14.2071429 5.32628571,15.588 7.42114286,15.6282857 C5.78314286,16.9105714 3.71914286,17.6794286 1.47428571,17.6794286 C1.08771429,17.6794286 0.706285714,17.6597143 0.331714286,17.6151429 C2.45057143,18.9694286 4.96714286,19.7657143 7.67057143,19.7657143 C16.4742857,19.7657143 21.2914286,12.468 21.2914286,6.14142857 C21.2914286,5.934 21.288,5.72914286 21.2785714,5.52257143 C22.2154286,4.85228571 23.0271429,4.00885714 23.6682857,3.04885714 Z"></path>
                    </g>
                </g>
            </g>
        </g>
    </g>
</svg>