<?xml version="1.0" encoding="UTF-8"?>
<svg width="51px" height="50px" viewBox="0 0 51 50" version="1.1" xmlns="http://www.w3.org/2000/svg" xmlns:xlink="http://www.w3.org/1999/xlink">
    <title>5E037AA2-27FA-4E04-9ED0-3441543A3C4F</title>
    <g id="Page-1" stroke="none" stroke-width="1" fill="none" fill-rule="evenodd">
        <g id="Home-Concept-v1.0-b" transform="translate(-1550.000000, -3931.000000)" fill="#FFFFFF">
            <g id="Footer" transform="translate(0.000000, 3824.000000)">
                <g id="Group-4" transform="translate(1399.000000, 107.000000)">
                    <g id="social-in" transform="translate(151.000000, 0.000000)">
                        <g id="Play">
                            <rect id="Rectangle" x="1" y="0" width="4" height="4"></rect>
                            <rect id="Rectangle" x="47" y="0" width="4" height="4"></rect>
                            <rect id="Rectangle" x="47" y="46" width="4" height="4"></rect>
                            <rect id="Rectangle" x="0" y="46" width="4" height="4"></rect>
                        </g>
                        <g transform="translate(12.000000, 11.000000)" fill-rule="nonzero" id="Group">
                            <g transform="translate(0.933333, 0.933333)">
                                <path d="M13.0666667,2.6264 C16.4686667,2.6264 16.87,2.6404 18.2149333,2.70106667 C19.4544,2.75893333 20.1292,2.96426667 20.5772,3.14066667 C21.1717333,3.37026667 21.5982667,3.64746667 22.0416,4.0936 C22.4868,4.54066667 22.7612,4.9644 22.9945333,5.55706667 C23.17,6.00413333 23.3753333,6.67986667 23.4341333,7.92026667 C23.4929333,9.2624 23.5069333,9.66466667 23.5069333,13.0666667 C23.5069333,16.4686667 23.4929333,16.8690667 23.4341333,18.2130667 C23.3762667,19.4544 23.1718667,20.1292 22.9945333,20.5762667 C22.7649333,21.1717333 22.4868,21.5964 22.0416,22.0406667 C21.5945333,22.4858667 21.1689333,22.7602667 20.5772,22.9926667 C20.1292,23.1681333 19.4544,23.3744 18.2149333,23.4341333 C16.8728,23.4929333 16.4686667,23.5069333 13.0666667,23.5069333 C9.66746667,23.5069333 9.2652,23.4929333 7.9212,23.4341333 C6.67986667,23.3762667 6.006,23.1690667 5.558,22.9926667 C4.96253333,22.7630667 4.5388,22.4858667 4.0936,22.0406667 C3.64746667,21.5936 3.37213333,21.1689333 3.14066667,20.5762667 C2.9652,20.1292 2.75893333,19.4544 2.702,18.2130667 C2.6404,16.8709333 2.62733333,16.4686667 2.62733333,13.0666667 C2.62733333,9.66466667 2.6404,9.2652 2.702,7.92026667 C2.75893333,6.67986667 2.96613333,6.00413333 3.14066667,5.55706667 C3.37213333,4.9616 3.64746667,4.53693333 4.0936,4.0936 C4.5388,3.64746667 4.96253333,3.374 5.558,3.14066667 C6.006,2.9652 6.6808,2.75893333 7.9212,2.70106667 C9.2652,2.6404 9.66746667,2.6264 13.0666667,2.6264 M13.0666667,0.331333333 C9.60866667,0.331333333 9.1756,0.348133333 7.8176,0.407866667 C6.4624,0.469466667 5.53653333,0.685066667 4.7264,1.0024 C3.8892,1.32813333 3.17893333,1.76026667 2.47053333,2.4696 C1.76213333,3.17706667 1.3272,3.8892 1.00146667,4.72453333 C0.686933333,5.53373333 0.472266667,6.4596 0.409733333,7.81573333 C0.348133333,9.17466667 0.3332,9.60773333 0.3332,13.0657333 C0.3332,16.5237333 0.348133333,16.9577333 0.409733333,18.3157333 C0.471333333,19.6709333 0.686933333,20.5930667 1.00146667,21.4069333 C1.3272,22.2432 1.76213333,22.9544 2.47053333,23.6618667 C3.178,24.3712 3.88826667,24.808 4.7264,25.13 C5.53653333,25.4445333 6.4624,25.6592 7.8176,25.7236 C9.1756,25.7833333 9.60866667,25.8001333 13.0666667,25.8001333 C16.5256,25.8001333 16.9596,25.7833333 18.3176,25.7236 C19.6728,25.6638667 20.5968,25.4445333 21.4088,25.13 C22.2450667,24.8033333 22.9562667,24.3712 23.6656,23.6618667 C24.3730667,22.9544 24.8108,22.2422667 25.1318667,21.4069333 C25.4482667,20.5977333 25.662,19.6746667 25.7254667,18.3157333 C25.7861333,16.9577333 25.802,16.5237333 25.802,13.0657333 C25.802,9.60773333 25.7861333,9.17466667 25.7254667,7.81573333 C25.6666667,6.46146667 25.4482667,5.53746667 25.1318667,4.72453333 C24.8061333,3.88826667 24.3730667,3.17706667 23.6656,2.4696 C22.9562667,1.76026667 22.246,1.32533333 21.4088,1.0024 C20.5996,0.685066667 19.6774667,0.472266667 18.3176,0.407866667 C16.9596,0.348133333 16.5256,0.331333333 13.0666667,0.331333333" id="Shape"></path>
                                <g transform="translate(6.533333, 4.666667)">
                                    <path d="M6.53333333,1.86106667 C2.9232,1.86106667 -0.00466666667,4.78893333 -0.00466666667,8.4 C-0.00466666667,12.0110667 2.9232,14.9389333 6.53333333,14.9389333 C10.1453333,14.9389333 13.0722667,12.0110667 13.0722667,8.4 C13.0722667,4.78893333 10.1453333,1.86106667 6.53333333,1.86106667 M6.53333333,12.6448 C4.18973333,12.6448 2.28946667,10.7445333 2.28946667,8.4 C2.28946667,6.0536 4.18973333,4.1552 6.53333333,4.1552 C8.87973333,4.1552 10.7790667,6.0536 10.7790667,8.4 C10.7790667,10.7445333 8.87973333,12.6448 6.53333333,12.6448" id="Shape"></path>
                                    <path d="M14.8586667,1.60346667 C14.8586667,2.4472 14.1773333,3.13226667 13.3308,3.13226667 C12.4842667,3.13226667 11.8010667,2.45 11.8010667,1.60346667 C11.8010667,0.760666667 12.4824,0.0756 13.3308,0.0756 C14.1754667,0.0756 14.8586667,0.757866667 14.8586667,1.60346667" id="Path"></path>
                                </g>
                            </g>
                        </g>
                    </g>
                </g>
            </g>
        </g>
    </g>
</svg>