<?xml version="1.0" encoding="UTF-8"?>
<svg width="21px" height="21px" viewBox="0 0 10 10" version="1.1" xmlns="http://www.w3.org/2000/svg" xmlns:xlink="http://www.w3.org/1999/xlink">
    <g id="Artboard" stroke="none" stroke-width="1" fill="none" fill-rule="evenodd">
        <g id="social-in-dark" transform="translate(-6.000000, -4.000000)">
            <g id="Play"></g>
            <g id="Group" transform="translate(6.000000, 4.000000)" fill="#000000" fill-rule="nonzero">
                <g transform="translate(0.338273, 0.338273)">
                    <path d="M4.73582758,0.951901342 C5.96883412,0.951901342 6.11429167,0.956975443 6.60174362,0.978963215 C7.05097071,0.999936163 7.29554238,1.07435631 7.45791361,1.13828999 C7.67339375,1.22150524 7.82798472,1.32197244 7.98866457,1.48366712 C8.15002098,1.64570008 8.24947336,1.7992762 8.3340417,2.01407981 C8.39763711,2.17611277 8.47205724,2.42102271 8.49336847,2.87058806 C8.51467969,3.3570252 8.51975379,3.50282104 8.51975379,4.73582758 C8.51975379,5.96883412 8.51467969,6.11395341 8.49336847,6.6010671 C8.47239554,7.05097071 8.39831367,7.29554238 8.3340417,7.45757535 C8.25082644,7.67339375 8.15002098,7.82730816 7.98866457,7.98832631 C7.8266316,8.14968272 7.67237893,8.2491351 7.45791361,8.33336517 C7.29554238,8.39696055 7.05097071,8.47171898 6.60174362,8.49336847 C6.11530649,8.51467969 5.96883412,8.51975379 4.73582758,8.51975379 C3.50383586,8.51975379 3.35804002,8.51467969 2.87092633,8.49336847 C2.42102271,8.47239554 2.17678932,8.39729885 2.01441809,8.33336517 C1.79859966,8.25014992 1.64502353,8.14968272 1.48366712,7.98832631 C1.32197244,7.82629334 1.22218179,7.67237893 1.13828999,7.45757535 C1.07469459,7.29554238 0.999936163,7.05097071 0.979301487,6.6010671 C0.956975443,6.11462993 0.952239614,5.96883412 0.952239614,4.73582758 C0.952239614,3.50282104 0.956975443,3.35804002 0.979301487,2.87058806 C0.999936163,2.42102271 1.07503286,2.17611277 1.13828999,2.01407981 C1.22218179,1.79826138 1.32197244,1.64434699 1.48366712,1.48366712 C1.64502353,1.32197244 1.79859966,1.22285833 2.01441809,1.13828999 C2.17678932,1.07469459 2.42136098,0.999936163 2.87092633,0.978963215 C3.35804002,0.956975443 3.50383586,0.951901342 4.73582758,0.951901342 M4.73582758,0.120087056 C3.48252463,0.120087056 3.32556578,0.126175977 2.83337798,0.147825475 C2.34220501,0.170151519 2.0066378,0.248292674 1.71301649,0.36330563 C1.40958525,0.481363044 1.15215919,0.63798363 0.895409683,0.895071411 C0.638660174,1.15148265 0.481024772,1.40958525 0.362967357,1.71233994 C0.248969221,2.00562298 0.17116634,2.34119019 0.148502022,2.83270143 C0.126175977,3.3252275 0.120763603,3.48218636 0.120763603,4.73548929 C0.120763603,5.98879223 0.126175977,6.14608936 0.148502022,6.63827715 C0.170828066,7.12945013 0.248969221,7.46366427 0.362967357,7.75863865 C0.481024772,8.06173162 0.638660174,8.31949595 0.895409683,8.5759072 C1.15182092,8.83299497 1.40924698,8.99130692 1.71301649,9.10801124 C2.0066378,9.22200937 2.34220501,9.29981226 2.83337798,9.32315312 C3.32556578,9.34480261 3.48252463,9.35089153 4.73582758,9.35089153 C5.98946879,9.35089153 6.14676592,9.34480261 6.63895371,9.32315312 C7.13012668,9.30150364 7.46501735,9.22200937 7.7593152,9.10801124 C8.06240818,8.98961554 8.32017251,8.83299497 8.57726028,8.5759072 C8.83367153,8.31949595 8.99232174,8.06139336 9.1086878,7.75863865 C9.22336248,7.46535561 9.30082708,7.13080324 9.32382968,6.63827715 C9.34581743,6.14608936 9.35156809,5.98879223 9.35156809,4.73548929 C9.35156809,3.48218636 9.34581743,3.3252275 9.32382968,2.83270143 C9.30251846,2.34186674 9.22336248,2.00697607 9.1086878,1.71233994 C8.99063036,1.40924698 8.83367153,1.15148265 8.57726028,0.895071411 C8.32017251,0.63798363 8.06274644,0.480348224 7.7593152,0.36330563 C7.46603217,0.248292674 7.13181806,0.17116634 6.63895371,0.147825475 C6.14676592,0.126175977 5.98946879,0.120087056 4.73582758,0.120087056" id="Shape"></path>
                    <g transform="translate(2.005478, 1.691367)">
                        <path d="M2.73034957,0.674517157 C1.42190807,0.674517157 0.360744417,1.7356808 0.360744417,3.04446058 C0.360744417,4.35324037 1.42190807,5.414404 2.73034957,5.414404 C4.03946761,5.414404 5.10029301,4.35324037 5.10029301,3.04446058 C5.10029301,1.7356808 4.03946761,0.674517157 2.73034957,0.674517157 M2.73034957,4.582928 C1.88094507,4.582928 1.19222043,3.89420335 1.19222043,3.04446058 C1.19222043,2.19404126 1.88094507,1.50599317 2.73034957,1.50599317 C3.58076889,1.50599317 4.26915527,2.19404126 4.26915527,3.04446058 C4.26915527,3.89420335 3.58076889,4.582928 2.73034957,4.582928" id="Shape"></path>
                        <path d="M5.74774829,0.581153699 C5.74774829,0.88695285 5.50080869,1.13524553 5.19399473,1.13524553 C4.88718077,1.13524553 4.63956464,0.88796767 4.63956464,0.581153699 C4.63956464,0.27569282 4.88650421,0.0274001452 5.19399473,0.0274001452 C5.50013217,0.0274001452 5.74774829,0.274677999 5.74774829,0.581153699" id="Path"></path>
                    </g>
                </g>
            </g>
        </g>
    </g>
</svg>